<?xml version="1.0" encoding="UTF-8"?>
<svg width="32px" height="32px" viewBox="0 0 32 32" version="1.1" xmlns="http://www.w3.org/2000/svg" xmlns:xlink="http://www.w3.org/1999/xlink">
    <!-- Generator: Sketch 47.1 (45422) - http://www.bohemiancoding.com/sketch -->
    <title>Icons / Cookie</title>
    <desc>Created with Sketch.</desc>
    <defs></defs>
    <g id="Symbols" stroke="none" stroke-width="1" fill="none" fill-rule="evenodd">
        <g id="Component-/-Cookie-Law" transform="translate(-14.000000, -14.000000)" fill="#0D8040">
            <g id="Icons-/-Cookie" transform="translate(14.000000, 14.000000)">
                <path d="M4,16 L5.06,16 C5.579,16 6.01,15.606 6.056,15.089 C6.413,11.063 9.193,7.709 12.905,6.506 C13.626,7.417 14.746,7.999 16,8 C17.254,7.999 18.374,7.417 19.095,6.506 C22.807,7.709 25.587,11.063 25.944,15.089 C25.99,15.606 26.421,16 26.94,16 L28,16 C29.109,16 29.999,16.891 30,18 C29.999,19.109 29.109,19.999 28,20 L4,20 C2.891,19.999 2.001,19.109 2,18 C2.001,16.891 2.891,16 4,16 L4,16 Z M16,2 C17.109,2.001 17.999,2.891 18,4 C18,4.313 17.922,4.607 17.784,4.858 L17.755,4.915 C17.461,5.542 16.791,6.001 16,6 C15.209,6.001 14.539,5.542 14.245,4.915 L14.216,4.858 C14.078,4.607 14,4.313 14,4 C14.001,2.891 14.891,2.001 16,2 L16,2 Z M24.341,29.196 C24.248,29.663 23.837,30 23.36,30 L20,30 L20,22 L25.78,22 L24.341,29.196 L24.341,29.196 Z M14,30 L18,30 L18,22 L14,22 L14,30 Z M12,30 L8.64,30 C8.163,30 7.752,29.663 7.659,29.196 L6.22,22 L12,22 L12,30 L12,30 Z M4,22 L4.18,22 L5.698,29.588 C5.979,30.991 7.209,32 8.64,32 L23.36,32 C24.791,32 26.021,30.991 26.302,29.588 L27.82,22 L28,22 C30.211,22 31.996,20.211 32,18 C31.996,15.789 30.211,14.004 28,14 L27.817,14 C27.086,9.647 24.007,6.091 19.932,4.68 C19.972,4.457 20,4.231 20,4 C19.996,1.789 18.211,0.004 16,0 C13.789,0.004 12.004,1.789 12,4 C12,4.231 12.028,4.457 12.068,4.68 C7.993,6.091 4.914,9.647 4.183,14 L4,14 C1.789,14.004 0.004,15.789 0,18 C0.004,20.211 1.789,22 4,22 L4,22 Z" id="Fill-90"></path>
            </g>
        </g>
    </g>
</svg>